<mxfile host="app.diagrams.net" modified="2025-03-05T03:04:43.176Z" agent="Mozilla/5.0 (Macintosh; Intel Mac OS X 10_15_7) AppleWebKit/537.36 (KHTML, like Gecko) Chrome/133.0.0.0 Safari/537.36" version="24.6.0" etag="8oIq-v3VqZtQ3olaRnMi" type="github">
  <diagram name="第 1 页" id="WnU82t5MfVYAgHqGGX8w">
    <mxGraphModel>
      <root>
        <mxCell id="0" />
        <mxCell id="1" parent="0" />
      </root>
    </mxGraphModel>
  </diagram>
</mxfile>
